<?xml version="1.0" encoding="utf-8"?>
<!-- Generator: Adobe Illustrator 24.0.2, SVG Export Plug-In . SVG Version: 6.00 Build 0)  -->
<svg version="1.1" id="Capa_1" xmlns="http://www.w3.org/2000/svg" xmlns:xlink="http://www.w3.org/1999/xlink" x="0px" y="0px"
	 viewBox="0 0 82.9 105.7" style="enable-background:new 0 0 82.9 105.7;" xml:space="preserve">
<style type="text/css">
	.st0{fill:none;stroke:#FFFFFF;stroke-width:3;stroke-miterlimit:10;}
	.st1{fill:#F7A64F;}
	.st2{fill:#FFFFFF;}
	.st3{fill:#0161A8;}
</style>
<g id="Capa_3">
</g>
<g id="Capa_2_1_">
	<g id="LWPOLYLINE_12_">
	</g>
	<path class="st0" d="M79.8,20.5c-7.4,3.1-16,1-21.2-5.2c-0.2-0.2-0.5-0.2-0.6-0.1c0,0,0,0-0.1,0.1c-0.8,0.9-1.7,1.8-2.6,2.6
		c-9.1,7.6-22.6,6.5-30.2-2.6c-0.2-0.2-0.5-0.2-0.6-0.1c0,0,0,0-0.1,0.1c-5.2,6.2-13.8,8.3-21.2,5.2c-0.2-0.1-0.5,0-0.6,0.2v0.1
		c-4.3,32.8,10.8,65,38.7,82.6c0.1,0.1,0.3,0.1,0.5,0c27.8-17.6,42.9-49.8,38.6-82.5C80.4,20.6,80.1,20.5,79.8,20.5L79.8,20.5z"/>
</g>
<g id="Capa_1_1_">
	<g>
		<g id="LWPOLYLINE_11_">
			<path class="st1" d="M41.3,12.2L37.1,15c-0.1,0.1-0.2,0.1-0.3,0c-0.2-0.1-0.3-0.3-0.2-0.4l1.4-4.1c0-0.1,0-0.3-0.1-0.4L35,7.3
				c0,0-0.1-0.1-0.1-0.2c0-0.2,0.1-0.4,0.3-0.4L38.8,6C38.9,6,39,5.9,39,5.8l2.2-3.7L41.3,2c0.2-0.1,0.4,0,0.5,0.1L44.1,6l3.7,0.8
				c0.1,0,0.1,0,0.2,0.1c0.1,0.1,0.1,0.4,0,0.5l-2.9,2.9C45,10.4,45,10.4,45,10.6l1.4,4.1c0,0.1,0,0.2,0,0.3
				c-0.1,0.2-0.3,0.2-0.5,0.1l-4.2-2.8C41.6,12.1,41.4,12.1,41.3,12.2z"/>
		</g>
		<g>
			<g id="LWPOLYLINE_9_">
				<path class="st2" d="M5.4,34l35.8,38.3c0.2,0.2,0.5,0.2,0.6,0l0,0L77.6,34c0.1-0.1,0.2-0.1,0.3-0.1c0.3,0,0.5,0.2,0.4,0.5
					C77.5,61,63.8,85.5,41.6,100.2c-0.2,0.1-0.4,0.1-0.5,0C19.1,85.4,5.4,61,4.6,34.3c0-0.1,0-0.3,0.1-0.3C4.9,33.8,5.2,33.8,5.4,34
					"/>
			</g>
			<g id="LWPOLYLINE_8_">
				<path class="st2" d="M8.6,24.5c5.9,0.5,11.8-1.6,16.2-5.7c9.3,9,24.2,9,33.5,0c4.3,4.1,10.2,6.1,16.2,5.7c0.1,0,0.3,0,0.3,0.1
					c0.2,0.2,0.2,0.5,0,0.6l-33,35.4l0,0c-0.2,0.2-0.5,0.2-0.6,0l-33-35.3C8.1,25.1,8.1,25,8.1,25C8.1,24.6,8.3,24.5,8.6,24.5"/>
			</g>
			<g id="LWPOLYLINE_7_">
				<path class="st3" d="M35.8,88.1c0.2,0.2,0.5,0.2,0.6,0c0.1-0.1,0.1-0.2,0.1-0.3V72.6c0-0.1,0.1-0.2,0.1-0.3
					c0.2-0.2,0.5-0.2,0.6,0l2.7,2.9c0.1,0.1,0.1,0.2,0.1,0.3v19.9c0,0.1,0,0.2-0.1,0.3c-0.1,0.2-0.4,0.2-0.6,0.1
					c-12.4-9.1-21.8-21.6-27.2-36l0,0c-0.1-0.2,0-0.5,0.3-0.6l2.5-0.9c0.2-0.1,0.5,0,0.6,0.3C19.9,69.8,26.8,79.8,35.8,88.1z"/>
			</g>
			<path class="st3" d="M5.4,34l35.8,38.3c0.2,0.2,0.5,0.2,0.6,0l0,0L77.6,34c0.1-0.1,0.2-0.1,0.3-0.1c0.3,0,0.5,0.2,0.4,0.5
				c-0.8,26.6-14.5,51-36.7,65.8c-0.2,0.1-0.4,0.1-0.5,0C19.1,85.4,5.4,61,4.6,34.3c0-0.1,0-0.3,0.1-0.3C4.9,33.8,5.2,33.8,5.4,34
				 M79.8,20.5c-7.4,3.1-16,1-21.2-5.2c-0.2-0.2-0.5-0.2-0.6-0.1c0,0,0,0-0.1,0.1c-0.8,0.9-1.7,1.8-2.6,2.6
				c-9.1,7.6-22.6,6.5-30.2-2.6c-0.2-0.2-0.5-0.2-0.6-0.1c0,0,0,0-0.1,0.1c-5.2,6.2-13.8,8.3-21.2,5.2c-0.2-0.1-0.5,0-0.6,0.2v0.1
				c-4.3,32.8,10.8,65,38.7,82.6c0.1,0.1,0.3,0.1,0.5,0c27.8-17.6,42.9-49.8,38.6-82.5C80.4,20.6,80.1,20.5,79.8,20.5L79.8,20.5z
				 M8.6,24.5c5.9,0.5,11.8-1.6,16.2-5.7c9.3,9,24.2,9,33.5,0c4.3,4.1,10.2,6.1,16.2,5.7c0.1,0,0.3,0,0.3,0.1c0.2,0.2,0.2,0.5,0,0.6
				l-33,35.4l0,0c-0.2,0.2-0.5,0.2-0.6,0l-33-35.3C8.1,25.1,8.1,25,8.1,25C8.1,24.6,8.3,24.5,8.6,24.5"/>
			<path class="st3" d="M50.4,42.2l2.2-2.3c0.2-0.2,0.2-0.5,0-0.6c-0.1-0.1-0.2-0.1-0.3-0.1h-5.4c-0.3,0-0.5,0.2-0.5,0.5v12
				c0,0.1,0,0.2-0.1,0.3l-2.7,2.9C43.5,55,43.4,55,43.3,55c-0.3,0-0.5-0.2-0.5-0.5V28.8c0-0.3,0.2-0.5,0.5-0.5h23.9
				c0.1,0,0.2,0,0.3,0.1c0.2,0.2,0.2,0.5,0,0.6L53.1,44.5c-0.2,0.2-0.5,0.2-0.6,0l-2-1.8C50.3,42.5,50.3,42.3,50.4,42.2z M46.4,35
				c0,0.3,0.2,0.5,0.5,0.5h9.6c0.1,0,0.2-0.1,0.3-0.1l2.5-2.7c0.2-0.2,0.2-0.5,0-0.6C59.2,32,59.1,32,59,32H46.9
				c-0.3,0-0.5,0.2-0.5,0.5V35z"/>
			<g id="LWPOLYLINE_6_">
				<path class="st3" d="M61.2,61.8L61.2,61.8c0.1,0.2,0,0.5-0.2,0.6c-5.6,3-10.2,7.6-13.4,13c-0.3,0.5-0.2,1.1,0.3,1.4
					c0.4,0.2,0.9,0.2,1.2-0.1c3.2-2.9,6.2-5.9,9.1-9.1c1.4-1.3,3.5-1.5,5-0.4c1.8,1.2,2.3,3.7,1.1,5.6c-5.4,8.9-12.4,16.6-20.8,22.7
					c-0.1,0.1-0.2,0.1-0.3,0.1c-0.3,0-0.5-0.2-0.5-0.5v-3c0-0.2,0.1-0.3,0.2-0.4c7.3-5.1,13.4-11.7,18-19.3c0.3-0.6,0.1-1.3-0.4-1.6
					C60,70.4,59.3,70.5,59,71c-2.7,3.6-5.9,6.9-9.5,9.7c0,0,0,0-0.1,0c-1.7,1.2-4,0.8-5.2-0.9c-1.1-1.8-1.1-4-0.1-5.8
					c3.5-6.2,8.7-11.4,14.9-15.1l0,0c0.2-0.1,0.5-0.1,0.6,0.2L61.2,61.8z"/>
			</g>
			<g id="LWPOLYLINE_2_">
				<path class="st3" d="M40.2,54.3v-3.9c0-0.1,0-0.2-0.1-0.3L23.7,32.7c-0.1-0.1-0.1-0.2-0.1-0.3c0-0.3,0.2-0.5,0.5-0.5h15.7
					c0.3,0,0.5-0.2,0.5-0.5v-2.6c0-0.3-0.2-0.5-0.5-0.5h-24c-0.3,0-0.5,0.2-0.5,0.5c0,0.1,0,0.2,0.1,0.3l24,25.6
					c0.2,0.2,0.5,0.2,0.6,0S40.2,54.5,40.2,54.3z"/>
			</g>
		</g>
	</g>
</g>
</svg>
